# Blender 4.2.0
# www.blender.org
o Cube
v 1.000000 1.000000 -1.000000
v 1.000000 -1.000000 -1.000000
v 1.000000 1.000000 1.000000
v 1.000000 -1.000000 1.000000
v -1.000000 1.000000 -1.000000
v -1.000000 -1.000000 -1.000000
v -1.000000 1.000000 1.000000
v -1.000000 -1.000000 1.000000
vn -0.0000 1.0000 -0.0000
vn -0.0000 -0.0000 1.0000
vn -1.0000 -0.0000 -0.0000
vn -0.0000 -1.0000 -0.0000
vn 1.0000 -0.0000 -0.0000
vn -0.0000 -0.0000 -1.0000
vt 1.000000 0.000000
vt 0.000000 1.000000
vt 0.000000 0.000000
vt 1.000000 1.000000
s 0
f 5/1/1 3/2/1 1/3/1
f 3/1/2 8/2/2 4/3/2
f 7/1/3 6/2/3 8/3/3
f 2/1/4 8/2/4 6/3/4
f 1/1/5 4/2/5 2/3/5
f 5/1/6 2/2/6 6/3/6
f 5/1/1 7/4/1 3/2/1
f 3/1/2 7/4/2 8/2/2
f 7/1/3 5/4/3 6/2/3
f 2/1/4 4/4/4 8/2/4
f 1/1/5 3/4/5 4/2/5
f 5/1/6 1/4/6 2/2/6
o Cube.001
v 1.000000 1.000000 -4.000000
v 1.000000 -1.000000 -4.000000
v 1.000000 1.000000 -2.000000
v 1.000000 -1.000000 -2.000000
v -1.000000 1.000000 -4.000000
v -1.000000 -1.000000 -4.000000
v -1.000000 1.000000 -2.000000
v -1.000000 -1.000000 -2.000000
vn -0.0000 1.0000 -0.0000
vn -0.0000 -0.0000 1.0000
vn -1.0000 -0.0000 -0.0000
vn -0.0000 -1.0000 -0.0000
vn 1.0000 -0.0000 -0.0000
vn -0.0000 -0.0000 -1.0000
vt 1.000000 0.000000
vt 0.000000 1.000000
vt 0.000000 0.000000
vt 1.000000 1.000000
s 0
f 13/5/7 11/6/7 9/7/7
f 11/5/8 16/6/8 12/7/8
f 15/5/9 14/6/9 16/7/9
f 10/5/10 16/6/10 14/7/10
f 9/5/11 12/6/11 10/7/11
f 13/5/12 10/6/12 14/7/12
f 13/5/7 15/8/7 11/6/7
f 11/5/8 15/8/8 16/6/8
f 15/5/9 13/8/9 14/6/9
f 10/5/10 12/8/10 16/6/10
f 9/5/11 11/8/11 12/6/11
f 13/5/12 9/8/12 10/6/12
o Cube.002
v 1.000000 1.000000 2.000000
v 1.000000 -1.000000 2.000000
v 1.000000 1.000000 4.000000
v 1.000000 -1.000000 4.000000
v -1.000000 1.000000 2.000000
v -1.000000 -1.000000 2.000000
v -1.000000 1.000000 4.000000
v -1.000000 -1.000000 4.000000
vn -0.0000 1.0000 -0.0000
vn -0.0000 -0.0000 1.0000
vn -1.0000 -0.0000 -0.0000
vn -0.0000 -1.0000 -0.0000
vn 1.0000 -0.0000 -0.0000
vn -0.0000 -0.0000 -1.0000
vt 1.000000 0.000000
vt 0.000000 1.000000
vt 0.000000 0.000000
vt 1.000000 1.000000
s 0
f 21/9/13 19/10/13 17/11/13
f 19/9/14 24/10/14 20/11/14
f 23/9/15 22/10/15 24/11/15
f 18/9/16 24/10/16 22/11/16
f 17/9/17 20/10/17 18/11/17
f 21/9/18 18/10/18 22/11/18
f 21/9/13 23/12/13 19/10/13
f 19/9/14 23/12/14 24/10/14
f 23/9/15 21/12/15 22/10/15
f 18/9/16 20/12/16 24/10/16
f 17/9/17 19/12/17 20/10/17
f 21/9/18 17/12/18 18/10/18
